<svg version="1.1" xmlns="http://www.w3.org/2000/svg" xmlns:xlink="http://www.w3.org/1999/xlink" width="512.000000pt" height="512.000000pt" viewBox="0,0,256,256"><g fill="#ff8800" fill-rule="nonzero" stroke="none" stroke-width="1" stroke-linecap="butt" stroke-linejoin="miter" stroke-miterlimit="10" stroke-dasharray="" stroke-dashoffset="0" font-family="none" font-weight="none" font-size="none" text-anchor="none" style="mix-blend-mode: normal"><g transform="translate(-0.10679,0.00029) scale(0.5,0.5)"><g transform="translate(0,512) scale(0.1,-0.1)"><path d="M2370,5113c-232,-22 -409,-56 -590,-115c-397,-129 -719,-325 -1019,-621c-412,-407 -661,-909 -742,-1497c-18,-125 -18,-515 0,-640c105,-762 511,-1409 1146,-1826c628,-412 1433,-523 2157,-298c131,41 180,73 209,138c50,111 -12,241 -130,272c-55,14 -52,14 -206,-31c-280,-83 -565,-111 -841,-84c-854,84 -1577,663 -1843,1475c-148,452 -148,896 0,1348c214,653 723,1162 1378,1376c235,77 449,110 707,110c113,0 141,3 172,19c130,67 149,231 39,328c-20,18 -53,37 -74,42c-35,10 -278,13 -363,4z"></path><path d="M3372,5109c-47,-14 -109,-80 -122,-129c-8,-29 -10,-248 -7,-738c3,-666 4,-701 24,-783c72,-292 237,-494 488,-596c44,-18 113,-40 152,-49l73,-16l2,-1331l3,-1332l24,-38c13,-21 42,-50 64,-65c34,-22 52,-27 106,-27c79,0 128,25 169,88l27,41l3,1331l2,1332l84,20c316,79 522,273 610,576c43,148 47,237 44,937l-3,655l-24,38c-13,21 -42,50 -64,65c-34,23 -52,27 -107,27c-55,0 -73,-4 -107,-27c-22,-15 -51,-44 -64,-65l-24,-38l-6,-705c-6,-761 -5,-755 -61,-863c-51,-101 -162,-182 -290,-212c-87,-20 -301,-20 -382,1c-166,43 -264,137 -322,314c-17,50 -19,114 -24,760l-5,705l-24,38c-47,76 -151,113 -239,86z"></path><path d="M4112,5109c-46,-14 -109,-80 -122,-128c-7,-27 -10,-244 -8,-679l3,-638l27,-41c41,-62 90,-88 168,-88c78,0 127,26 168,88l27,41v660v661l-24,38c-47,76 -151,113 -239,86z"></path><path d="M2348,4095c-615,-87 -1119,-531 -1284,-1132c-250,-912 385,-1838 1335,-1944c193,-21 273,-1 329,84c37,56 39,153 3,210c-43,69 -84,88 -218,98c-65,6 -151,17 -192,25c-211,44 -411,153 -570,312c-453,451 -454,1171 -2,1623c209,209 448,314 767,338c130,10 168,27 212,94c23,34 27,52 27,107c0,55 -4,73 -27,107c-44,67 -87,87 -193,90c-49,1 -134,-4 -187,-12z"></path></g></g></g></svg>